REM DIRINDEX 1\2,1\4,1\5,1\6,1\7,1\3\8,1\3\9,1\3\10
REM DIRNAME folder01,folder02,folder03,folder04,folder05,folder06,folder07,folder08,folder09,folder10
TITLE ""
FILE "DB4500_5th_2A_37.mp3" MP3
  TRACK 01 AUDIO
    TITLE "0:"
    INDEX 01 00:00:00
  TRACK 02 AUDIO
    TITLE "8:cjc113_1385"
    INDEX 01 00:00:03
  TRACK 03 AUDIO
    TITLE "0:"
    INDEX 01 00:01:15
  TRACK 04 AUDIO
    TITLE "9:cjc113_1386"
    INDEX 01 00:01:34
  TRACK 05 AUDIO
    TITLE "0:"
    INDEX 01 00:03:02
  TRACK 06 AUDIO
    TITLE "10:cjc113_1387"
    INDEX 01 00:03:17
  TRACK 07 AUDIO
    TITLE "0:"
    INDEX 01 00:06:16
  TRACK 08 AUDIO
    TITLE "8:cjc113_1388"
    INDEX 01 00:06:59
  TRACK 09 AUDIO
    TITLE "0:"
    INDEX 01 00:08:11
  TRACK 10 AUDIO
    TITLE "9:cjc113_1389"
    INDEX 01 00:08:30
  TRACK 11 AUDIO
    TITLE "0:"
    INDEX 01 00:09:49
  TRACK 12 AUDIO
    TITLE "10:cjc113_1390"
    INDEX 01 00:09:67
  TRACK 13 AUDIO
    TITLE "0:"
    INDEX 01 00:13:65
  TRACK 14 AUDIO
    TITLE "8:cjc113_1391"
    INDEX 01 00:14:33
  TRACK 15 AUDIO
    TITLE "0:"
    INDEX 01 00:15:68
  TRACK 16 AUDIO
    TITLE "9:cjc113_1392"
    INDEX 01 00:16:14
  TRACK 17 AUDIO
    TITLE "0:"
    INDEX 01 00:17:33
  TRACK 18 AUDIO
    TITLE "10:cjc113_1393"
    INDEX 01 00:17:49
  TRACK 19 AUDIO
    TITLE "0:"
    INDEX 01 00:21:47
  TRACK 20 AUDIO
    TITLE "8:cjc113_1394"
    INDEX 01 00:22:17
  TRACK 21 AUDIO
    TITLE "0:"
    INDEX 01 00:23:38
  TRACK 22 AUDIO
    TITLE "9:cjc113_1395"
    INDEX 01 00:23:57
  TRACK 23 AUDIO
    TITLE "0:"
    INDEX 01 00:24:74
  TRACK 24 AUDIO
    TITLE "10:cjc113_1396"
    INDEX 01 00:25:17
  TRACK 25 AUDIO
    TITLE "0:"
    INDEX 01 00:29:29
  TRACK 26 AUDIO
    TITLE "8:cjc113_1397"
    INDEX 01 00:30:01
  TRACK 27 AUDIO
    TITLE "0:"
    INDEX 01 00:31:12
  TRACK 28 AUDIO
    TITLE "9:cjc113_1398"
    INDEX 01 00:31:31
  TRACK 29 AUDIO
    TITLE "0:"
    INDEX 01 00:32:64
  TRACK 30 AUDIO
    TITLE "10:cjc113_1399"
    INDEX 01 00:33:07
  TRACK 31 AUDIO
    TITLE "0:"
    INDEX 01 00:37:24
  TRACK 32 AUDIO
    TITLE "8:cjc113_1400"
    INDEX 01 00:37:67
  TRACK 33 AUDIO
    TITLE "0:"
    INDEX 01 00:39:07
  TRACK 34 AUDIO
    TITLE "9:cjc113_1401"
    INDEX 01 00:39:21
  TRACK 35 AUDIO
    TITLE "0:"
    INDEX 01 00:40:73
  TRACK 36 AUDIO
    TITLE "10:cjc113_1402"
    INDEX 01 00:41:14
  TRACK 37 AUDIO
    TITLE "0:"
    INDEX 01 00:44:03
  TRACK 38 AUDIO
    TITLE "8:cjc113_1403"
    INDEX 01 00:44:46
  TRACK 39 AUDIO
    TITLE "0:"
    INDEX 01 00:45:63
  TRACK 40 AUDIO
    TITLE "9:cjc113_1404"
    INDEX 01 00:46:09
  TRACK 41 AUDIO
    TITLE "0:"
    INDEX 01 00:47:38
  TRACK 42 AUDIO
    TITLE "10:cjc113_1405"
    INDEX 01 00:47:54
  TRACK 43 AUDIO
    TITLE "0:"
    INDEX 01 00:51:16
  TRACK 44 AUDIO
    TITLE "8:cjc113_1406"
    INDEX 01 00:51:65
  TRACK 45 AUDIO
    TITLE "0:"
    INDEX 01 00:53:21
  TRACK 46 AUDIO
    TITLE "9:cjc113_1407"
    INDEX 01 00:53:43
  TRACK 47 AUDIO
    TITLE "0:"
    INDEX 01 00:54:64
  TRACK 48 AUDIO
    TITLE "10:cjc113_1408"
    INDEX 01 00:55:14
  TRACK 49 AUDIO
    TITLE "0:"
    INDEX 01 00:58:52
  TRACK 50 AUDIO
    TITLE "10:cjc113_1409"
    INDEX 01 00:59:22
  TRACK 51 AUDIO
    TITLE "0:"
    INDEX 01 01:03:20
  TRACK 52 AUDIO
    TITLE "8:cjc113_1410"
    INDEX 01 01:03:69
  TRACK 53 AUDIO
    TITLE "0:"
    INDEX 01 01:05:17
  TRACK 54 AUDIO
    TITLE "9:cjc113_1411"
    INDEX 01 01:05:40
  TRACK 55 AUDIO
    TITLE "0:"
    INDEX 01 01:07:12
  TRACK 56 AUDIO
    TITLE "10:cjc113_1412"
    INDEX 01 01:07:35
  TRACK 57 AUDIO
    TITLE "0:"
    INDEX 01 01:10:26
  TRACK 58 AUDIO
    TITLE "8:cjc113_1413"
    INDEX 01 01:10:73
  TRACK 59 AUDIO
    TITLE "0:"
    INDEX 01 01:12:15
  TRACK 60 AUDIO
    TITLE "9:cjc113_1414"
    INDEX 01 01:12:38
  TRACK 61 AUDIO
    TITLE "0:"
    INDEX 01 01:14:06
  TRACK 62 AUDIO
    TITLE "10:cjc113_1415"
    INDEX 01 01:14:27
  TRACK 63 AUDIO
    TITLE "0:"
    INDEX 01 01:18:70
  TRACK 64 AUDIO
    TITLE "8:cjc113_1416"
    INDEX 01 01:19:44
  TRACK 65 AUDIO
    TITLE "0:"
    INDEX 01 01:20:69
  TRACK 66 AUDIO
    TITLE "9:cjc113_1417"
    INDEX 01 01:21:14
  TRACK 67 AUDIO
    TITLE "0:"
    INDEX 01 01:22:62
  TRACK 68 AUDIO
    TITLE "10:cjc113_1418"
    INDEX 01 01:23:09
  TRACK 69 AUDIO
    TITLE "0:"
    INDEX 01 01:27:26
  TRACK 70 AUDIO
    TITLE "8:cjc113_1419"
    INDEX 01 01:27:73
  TRACK 71 AUDIO
    TITLE "0:"
    INDEX 01 01:29:25
  TRACK 72 AUDIO
    TITLE "9:cjc113_1420"
    INDEX 01 01:29:48
  TRACK 73 AUDIO
    TITLE "0:"
    INDEX 01 01:31:04
  TRACK 74 AUDIO
    TITLE "10:cjc113_1421"
    INDEX 01 01:31:26
  TRACK 75 AUDIO
    TITLE "0:"
    INDEX 01 01:34:26
  TRACK 76 AUDIO
    TITLE "8:cjc113_1422"
    INDEX 01 01:34:73
  TRACK 77 AUDIO
    TITLE "0:"
    INDEX 01 01:36:03
  TRACK 78 AUDIO
    TITLE "9:cjc113_1423"
    INDEX 01 01:36:27
  TRACK 79 AUDIO
    TITLE "0:"
    INDEX 01 01:37:52
  TRACK 80 AUDIO
    TITLE "10:cjc113_1424"
    INDEX 01 01:38:00
  TRACK 81 AUDIO
    TITLE "0:"
    INDEX 01 01:41:24
